<svg width="46" height="18" viewBox="0 0 46 18" fill="none" xmlns="http://www.w3.org/2000/svg">
<path d="M8.31883 12.344V14H0.704834V1.4H2.59483L2.57683 12.344H8.31883ZM14.3358 14.126C13.3638 14.126 12.5418 13.898 11.8698 13.442C11.1978 12.986 10.6938 12.386 10.3578 11.642C10.0338 10.886 9.87176 10.076 9.87176 9.212C9.87176 8.336 10.0338 7.526 10.3578 6.782C10.6938 6.026 11.1978 5.42 11.8698 4.964C12.5418 4.496 13.3638 4.262 14.3358 4.262C15.3078 4.262 16.1298 4.496 16.8018 4.964C17.4738 5.42 17.9778 6.026 18.3138 6.782C18.6498 7.526 18.8178 8.33 18.8178 9.194C18.8178 10.058 18.6498 10.868 18.3138 11.624C17.9778 12.368 17.4738 12.974 16.8018 13.442C16.1298 13.898 15.3078 14.126 14.3358 14.126ZM14.3358 12.578C15.1638 12.578 15.8058 12.254 16.2618 11.606C16.7298 10.958 16.9638 10.148 16.9638 9.176C16.9638 8.204 16.7298 7.4 16.2618 6.764C15.8058 6.128 15.1638 5.81 14.3358 5.81C13.5198 5.81 12.8778 6.134 12.4098 6.782C11.9418 7.418 11.7078 8.216 11.7078 9.176C11.7078 10.148 11.9358 10.958 12.3918 11.606C12.8598 12.254 13.5078 12.578 14.3358 12.578ZM25.2401 17.87C24.8561 17.87 24.5621 17.846 24.3581 17.798C24.1541 17.75 23.9201 17.678 23.6561 17.582V16.052C23.8121 16.1 24.0161 16.142 24.2681 16.178C24.5321 16.226 24.7901 16.25 25.0421 16.25C25.9541 16.25 26.6201 15.992 27.0401 15.476C27.4721 14.972 27.6881 14.312 27.6881 13.496V11.93H27.5441C27.3161 12.446 26.9321 12.896 26.3921 13.28C25.8641 13.664 25.2041 13.856 24.4121 13.856C23.6321 13.856 22.9481 13.658 22.3601 13.262C21.7721 12.854 21.3161 12.29 20.9921 11.57C20.6801 10.838 20.5241 9.998 20.5241 9.05C20.5241 8.102 20.6801 7.268 20.9921 6.548C21.3161 5.816 21.7721 5.252 22.3601 4.856C22.9481 4.448 23.6381 4.244 24.4301 4.244C25.2461 4.244 25.9181 4.454 26.4461 4.874C26.9741 5.282 27.3461 5.744 27.5621 6.26H27.6881V4.514H29.5781V13.496C29.5781 14.144 29.4461 14.798 29.1821 15.458C28.9301 16.118 28.4801 16.682 27.8321 17.15C27.1841 17.63 26.3201 17.87 25.2401 17.87ZM25.0601 12.308C25.9001 12.308 26.5421 11.984 26.9861 11.336C27.4421 10.688 27.6701 9.914 27.6701 9.014C27.6701 8.15 27.4481 7.4 27.0041 6.764C26.5601 6.128 25.9121 5.81 25.0601 5.81C24.2081 5.81 23.5601 6.128 23.1161 6.764C22.6721 7.388 22.4501 8.138 22.4501 9.014C22.4501 9.914 22.6721 10.688 23.1161 11.336C23.5721 11.984 24.2201 12.308 25.0601 12.308ZM32.2442 4.514H34.0982V14H32.2442V4.514ZM33.1622 2.786C32.8382 2.786 32.5682 2.678 32.3522 2.462C32.1362 2.246 32.0282 1.976 32.0282 1.652C32.0282 1.328 32.1362 1.058 32.3522 0.842C32.5682 0.626 32.8382 0.518 33.1622 0.518C33.4862 0.518 33.7562 0.632 33.9722 0.86C34.1882 1.076 34.2962 1.34 34.2962 1.652C34.2962 1.964 34.1882 2.234 33.9722 2.462C33.7562 2.678 33.4862 2.786 33.1622 2.786ZM36.8279 4.514H38.6999V6.134H38.8439C39.0719 5.606 39.4439 5.162 39.9599 4.802C40.4759 4.442 41.1119 4.262 41.8679 4.262C42.6839 4.262 43.3559 4.46 43.8839 4.856C44.4119 5.24 44.7959 5.738 45.0359 6.35C45.2759 6.95 45.3959 7.592 45.3959 8.276V14H43.5419V8.546C43.5419 7.682 43.3199 7.022 42.8759 6.566C42.4439 6.11 41.8679 5.882 41.1479 5.882C40.3919 5.882 39.7919 6.128 39.3479 6.62C38.9159 7.112 38.6999 7.754 38.6999 8.546V14H36.8279V4.514Z" fill="white"/>
</svg>
